<?xml version="1.0" standalone="no"?>
<!DOCTYPE svg PUBLIC "-//W3C//DTD SVG 20010904//EN"
 "http://www.w3.org/TR/2001/REC-SVG-20010904/DTD/svg10.dtd">
<svg version="1.0" xmlns="http://www.w3.org/2000/svg"
 width="512.000000pt" height="512.000000pt" viewBox="0 0 512.000000 512.000000"
 preserveAspectRatio="xMidYMid meet">
<metadata>
Created by potrace 1.14, written by Peter Selinger 2001-2017
</metadata>
<g transform="translate(0.000000,512.000000) scale(0.100000,-0.100000)"
fill="#000000" stroke="none">
<path d="M2195 5074 c-19 -29 -20 -37 -30 -120 -7 -67 -8 -165 -1 -215 3 -19
8 -57 10 -85 3 -28 8 -58 12 -67 7 -19 -5 -44 -15 -30 -3 5 -46 33 -96 61
-134 78 -355 222 -340 222 4 0 -17 20 -47 45 -29 24 -59 45 -65 45 -7 0 -13 4
-13 9 0 15 -41 20 -66 9 -18 -9 -21 -14 -12 -20 10 -6 10 -10 -2 -18 -8 -5
-10 -10 -5 -10 6 0 11 -11 11 -25 1 -14 5 -33 10 -43 4 -9 8 -24 9 -32 1 -8 7
-28 13 -43 7 -15 15 -40 18 -55 4 -15 12 -36 18 -47 5 -11 11 -22 12 -25 12
-35 17 -56 15 -59 -2 -2 1 -7 6 -10 5 -3 23 -39 41 -79 l32 -72 -31 -33 c-17
-17 -44 -50 -58 -72 -26 -37 -84 -150 -87 -167 -1 -5 -3 -10 -4 -13 -1 -3 -3
-8 -5 -12 -1 -5 -4 -15 -7 -23 -6 -16 -25 -87 -34 -130 -7 -31 -14 -74 -19
-120 -2 -19 -5 -35 -5 -35 -1 0 -3 -20 -5 -45 -3 -58 -2 -53 -25 -78 -12 -12
-18 -22 -15 -22 3 0 1 -6 -5 -12 -38 -46 -49 -62 -60 -88 -7 -17 -16 -30 -20
-30 -4 0 -11 -8 -14 -17 -7 -21 -27 -55 -43 -74 -6 -8 -28 -48 -49 -89 -21
-41 -41 -77 -45 -80 -3 -3 -11 -22 -18 -42 -7 -20 -19 -42 -27 -48 -7 -7 -14
-17 -14 -23 0 -14 -102 -221 -113 -228 -5 -3 -8 -10 -7 -15 2 -14 -43 -104
-52 -104 -4 0 -8 -7 -8 -15 0 -8 -5 -15 -10 -15 -6 0 -9 -3 -8 -7 1 -5 -3 -19
-9 -33 -69 -165 -86 -202 -154 -348 -22 -46 -40 -88 -42 -95 -1 -6 -8 -18 -15
-25 -7 -8 -10 -18 -7 -23 4 -5 2 -9 -4 -9 -5 0 -12 -14 -16 -30 -4 -17 -11
-30 -16 -30 -6 0 -7 -4 -4 -10 3 -6 1 -10 -4 -10 -6 0 -10 -3 -9 -7 1 -5 -5
-21 -12 -38 -7 -16 -13 -33 -12 -37 1 -5 -2 -8 -8 -8 -5 0 -10 -4 -10 -10 0
-5 -20 -50 -44 -99 -24 -49 -41 -92 -38 -95 3 -3 1 -6 -5 -6 -6 0 -14 -11 -17
-24 -3 -14 -12 -31 -19 -38 -12 -12 -37 -54 -101 -170 -14 -27 -22 -48 -18
-48 4 0 2 -4 -3 -8 -12 -8 -39 -64 -37 -74 1 -5 -3 -8 -9 -8 -5 0 -7 -5 -4
-10 3 -6 -1 -13 -9 -16 -9 -3 -14 -10 -11 -14 3 -5 1 -11 -5 -15 -5 -3 -10
-15 -10 -25 0 -10 -7 -26 -16 -34 -8 -9 -13 -16 -10 -16 7 0 -38 -95 -54 -115
-7 -8 -10 -15 -6 -15 3 0 -5 -22 -18 -49 -14 -27 -22 -51 -19 -55 4 -3 1 -6
-6 -6 -7 0 -10 -3 -8 -8 3 -4 0 -18 -6 -32 -5 -14 -12 -36 -14 -50 -2 -13 -8
-29 -12 -35 -21 -28 -5 -292 20 -342 6 -11 9 -25 6 -30 -3 -4 5 -31 18 -58 13
-28 24 -56 24 -62 1 -7 6 -13 11 -13 6 0 10 -8 10 -19 0 -10 7 -24 15 -31 9
-7 13 -15 11 -18 -7 -7 94 -152 106 -152 5 0 6 -5 3 -10 -3 -6 1 -10 9 -10 9
0 16 -6 16 -12 1 -15 121 -108 139 -108 6 0 11 -3 11 -8 0 -4 15 -13 32 -20
18 -8 42 -18 53 -22 19 -9 127 -40 190 -55 96 -24 352 -6 393 27 6 6 12 8 12
5 0 -3 26 5 57 19 66 29 183 102 183 115 0 4 9 11 20 14 11 3 20 10 20 15 0 5
17 26 38 47 58 59 89 98 223 277 97 130 114 149 204 240 93 94 118 114 226
186 125 83 136 87 202 86 31 -1 57 2 57 5 0 3 17 6 38 7 57 2 106 7 117 14 6
3 18 4 28 3 9 -2 17 0 17 5 0 4 10 8 23 8 12 0 44 7 70 16 26 9 54 16 62 16 8
0 15 4 15 10 0 5 7 7 15 4 8 -4 15 -2 15 3 0 5 6 10 13 10 21 0 130 56 187 96
60 41 146 121 170 157 8 12 20 28 27 35 7 7 9 15 6 19 -4 3 -1 6 5 6 6 0 16
16 23 35 7 19 17 35 23 35 5 0 7 3 3 6 -3 4 0 23 8 43 17 43 38 158 31 169 -3
4 -1 14 4 22 9 15 20 -7 60 -120 12 -36 26 -69 30 -75 4 -5 13 -28 20 -50 7
-22 17 -46 23 -52 5 -7 6 -13 2 -13 -4 0 -2 -7 5 -15 7 -8 9 -15 5 -15 -4 0
-3 -6 2 -12 12 -15 50 -116 57 -150 3 -13 12 -50 21 -83 24 -86 34 -131 40
-175 2 -14 5 -25 6 -25 2 0 9 -41 11 -65 0 -8 4 -19 8 -25 4 -5 6 -20 5 -32
-1 -13 2 -23 6 -23 4 0 8 -8 7 -18 0 -20 18 -127 22 -127 1 0 3 -11 6 -25 2
-14 8 -47 14 -75 5 -27 12 -66 14 -85 3 -19 8 -46 11 -60 3 -14 7 -47 10 -75
3 -27 8 -75 12 -105 3 -30 7 -78 7 -107 1 -28 4 -49 8 -47 3 2 6 -15 6 -38 0
-24 1 -53 1 -65 l1 -23 695 0 695 0 0 2131 c-1 2192 0 2159 -35 2159 -3 0 -32
17 -63 38 -31 21 -73 45 -92 55 -19 10 -42 22 -50 27 -13 8 -142 72 -180 90
-8 4 -30 15 -47 24 -18 9 -36 17 -40 17 -5 1 -23 7 -42 15 -18 8 -40 14 -47
14 -8 0 -14 5 -14 10 0 6 -7 10 -15 10 -8 0 -23 4 -33 9 -35 18 -217 73 -350
106 -134 33 -171 40 -242 51 -19 2 -46 7 -60 10 -14 3 -41 7 -60 9 -19 2 -55
7 -80 11 -25 4 -74 8 -110 10 -36 1 -65 3 -65 4 0 5 -65 9 -160 10 -132 0
-176 -3 -191 -12 -6 -4 -14 -4 -18 -1 -8 8 -86 10 -86 3 0 -3 -15 -6 -32 -6
-43 0 -144 -14 -188 -24 -19 -5 -48 -11 -65 -14 -16 -3 -50 -12 -75 -19 -45
-14 -46 -13 -90 20 -25 18 -50 37 -57 43 -7 5 -16 10 -21 10 -5 0 -17 9 -27
20 -10 11 -23 20 -29 20 -6 0 -27 14 -46 30 -19 16 -39 30 -44 30 -5 0 -6 3
-3 6 4 4 -1 14 -11 23 -24 23 -54 73 -65 111 -3 10 -55 50 -65 50 -5 0 -17
-12 -27 -26z"/>
</g>
</svg>
